G04 #@! TF.GenerationSoftware,KiCad,Pcbnew,9.0.0*
G04 #@! TF.CreationDate,2025-04-11T23:40:49+02:00*
G04 #@! TF.ProjectId,1-Wire HAT for WT32-ETH01,312d5769-7265-4204-9841-5420666f7220,rev?*
G04 #@! TF.SameCoordinates,Original*
G04 #@! TF.FileFunction,Copper,L2,Bot*
G04 #@! TF.FilePolarity,Positive*
%FSLAX46Y46*%
G04 Gerber Fmt 4.6, Leading zero omitted, Abs format (unit mm)*
G04 Created by KiCad (PCBNEW 9.0.0) date 2025-04-11 23:40:49*
%MOMM*%
%LPD*%
G01*
G04 APERTURE LIST*
G04 Aperture macros list*
%AMRoundRect*
0 Rectangle with rounded corners*
0 $1 Rounding radius*
0 $2 $3 $4 $5 $6 $7 $8 $9 X,Y pos of 4 corners*
0 Add a 4 corners polygon primitive as box body*
4,1,4,$2,$3,$4,$5,$6,$7,$8,$9,$2,$3,0*
0 Add four circle primitives for the rounded corners*
1,1,$1+$1,$2,$3*
1,1,$1+$1,$4,$5*
1,1,$1+$1,$6,$7*
1,1,$1+$1,$8,$9*
0 Add four rect primitives between the rounded corners*
20,1,$1+$1,$2,$3,$4,$5,0*
20,1,$1+$1,$4,$5,$6,$7,0*
20,1,$1+$1,$6,$7,$8,$9,0*
20,1,$1+$1,$8,$9,$2,$3,0*%
G04 Aperture macros list end*
G04 #@! TA.AperFunction,ComponentPad*
%ADD10C,1.600000*%
G04 #@! TD*
G04 #@! TA.AperFunction,ComponentPad*
%ADD11O,1.600000X1.600000*%
G04 #@! TD*
G04 #@! TA.AperFunction,ComponentPad*
%ADD12RoundRect,0.250000X-0.600000X-0.750000X0.600000X-0.750000X0.600000X0.750000X-0.600000X0.750000X0*%
G04 #@! TD*
G04 #@! TA.AperFunction,ComponentPad*
%ADD13O,1.700000X2.000000*%
G04 #@! TD*
G04 #@! TA.AperFunction,ComponentPad*
%ADD14RoundRect,0.250000X-0.600000X-0.725000X0.600000X-0.725000X0.600000X0.725000X-0.600000X0.725000X0*%
G04 #@! TD*
G04 #@! TA.AperFunction,ComponentPad*
%ADD15O,1.700000X1.950000*%
G04 #@! TD*
G04 #@! TA.AperFunction,ComponentPad*
%ADD16R,1.700000X1.700000*%
G04 #@! TD*
G04 #@! TA.AperFunction,ComponentPad*
%ADD17O,1.700000X1.700000*%
G04 #@! TD*
G04 #@! TA.AperFunction,Conductor*
%ADD18C,0.300000*%
G04 #@! TD*
G04 #@! TA.AperFunction,Conductor*
%ADD19C,0.200000*%
G04 #@! TD*
G04 APERTURE END LIST*
D10*
X103910000Y-112700000D03*
D11*
X114070000Y-112700000D03*
D12*
X125540000Y-117780000D03*
D13*
X128040000Y-117780000D03*
D14*
X119150000Y-106350000D03*
D15*
X121650000Y-106350000D03*
X124150000Y-106350000D03*
D14*
X106450000Y-106350000D03*
D15*
X108950000Y-106350000D03*
X111450000Y-106350000D03*
D16*
X133120000Y-119050000D03*
D17*
X133120000Y-116510000D03*
X133120000Y-113970000D03*
X133120000Y-111430000D03*
X133120000Y-108890000D03*
X133120000Y-106350000D03*
D14*
X106450000Y-117780000D03*
D15*
X108950000Y-117780000D03*
X111450000Y-117780000D03*
D16*
X128045000Y-112700000D03*
D17*
X125505000Y-112700000D03*
D16*
X120420000Y-120320000D03*
D17*
X120420000Y-117780000D03*
X120420000Y-115240000D03*
D16*
X131850000Y-124130000D03*
D17*
X129310000Y-124130000D03*
X126770000Y-124130000D03*
X124230000Y-124130000D03*
X121690000Y-124130000D03*
X119150000Y-124130000D03*
X116610000Y-124130000D03*
X114070000Y-124130000D03*
X111530000Y-124130000D03*
X108990000Y-124130000D03*
X106450000Y-124130000D03*
X103910000Y-124130000D03*
X101370000Y-124130000D03*
D16*
X131850000Y-101270000D03*
D17*
X129310000Y-101270000D03*
X126770000Y-101270000D03*
X124230000Y-101270000D03*
X121690000Y-101270000D03*
X119150000Y-101270000D03*
X116610000Y-101270000D03*
X114070000Y-101270000D03*
X111530000Y-101270000D03*
X108990000Y-101270000D03*
X106450000Y-101270000D03*
X103910000Y-101270000D03*
X101370000Y-101270000D03*
D18*
X131850000Y-112700000D02*
X128045000Y-112700000D01*
X106450000Y-110160000D02*
X103910000Y-112700000D01*
X114070000Y-103810000D02*
X111530000Y-101270000D01*
X111450000Y-117780000D02*
X111450000Y-115320000D01*
X135660000Y-113970000D02*
X135660000Y-120320000D01*
X108950000Y-117780000D02*
X108950000Y-106350000D01*
X121650000Y-106350000D02*
X121650000Y-106310000D01*
D19*
X128045000Y-117775000D02*
X128040000Y-117780000D01*
D18*
X106450000Y-115240000D02*
X103910000Y-112700000D01*
X106450000Y-106223000D02*
X106450000Y-110160000D01*
X133120000Y-113970000D02*
X131850000Y-112700000D01*
X121650000Y-106310000D02*
X119150000Y-103810000D01*
X120420000Y-120320000D02*
X124230000Y-124130000D01*
X120420000Y-117780000D02*
X126770000Y-124130000D01*
X128045000Y-112700000D02*
X128045000Y-117775000D01*
X135660000Y-120320000D02*
X134390000Y-121590000D01*
X133120000Y-108890000D02*
X136930000Y-112700000D01*
X125540000Y-117780000D02*
X125540000Y-117820000D01*
X133120000Y-111430000D02*
X135660000Y-113970000D01*
X119150000Y-103810000D02*
X114070000Y-103810000D01*
X129310000Y-124130000D02*
X131850000Y-121590000D01*
X134390000Y-124130000D02*
X136930000Y-121590000D01*
X134390000Y-121590000D02*
X131850000Y-121590000D01*
X136930000Y-112700000D02*
X136930000Y-121590000D01*
X131850000Y-124130000D02*
X134390000Y-124130000D01*
X111450000Y-115320000D02*
X114070000Y-112700000D01*
X108950000Y-103850000D02*
X111530000Y-101270000D01*
X106450000Y-117780000D02*
X106450000Y-115240000D01*
X108950000Y-106350000D02*
X108950000Y-103850000D01*
X111450000Y-110080000D02*
X114070000Y-112700000D01*
X106450000Y-117780000D02*
X106450000Y-124130000D01*
X111450000Y-106223000D02*
X111450000Y-110080000D01*
M02*
