G04 #@! TF.GenerationSoftware,KiCad,Pcbnew,9.0.0*
G04 #@! TF.CreationDate,2025-04-11T23:40:49+02:00*
G04 #@! TF.ProjectId,1-Wire HAT for WT32-ETH01,312d5769-7265-4204-9841-5420666f7220,rev?*
G04 #@! TF.SameCoordinates,Original*
G04 #@! TF.FileFunction,Legend,Bot*
G04 #@! TF.FilePolarity,Positive*
%FSLAX46Y46*%
G04 Gerber Fmt 4.6, Leading zero omitted, Abs format (unit mm)*
G04 Created by KiCad (PCBNEW 9.0.0) date 2025-04-11 23:40:49*
%MOMM*%
%LPD*%
G01*
G04 APERTURE LIST*
G04 Aperture macros list*
%AMRoundRect*
0 Rectangle with rounded corners*
0 $1 Rounding radius*
0 $2 $3 $4 $5 $6 $7 $8 $9 X,Y pos of 4 corners*
0 Add a 4 corners polygon primitive as box body*
4,1,4,$2,$3,$4,$5,$6,$7,$8,$9,$2,$3,0*
0 Add four circle primitives for the rounded corners*
1,1,$1+$1,$2,$3*
1,1,$1+$1,$4,$5*
1,1,$1+$1,$6,$7*
1,1,$1+$1,$8,$9*
0 Add four rect primitives between the rounded corners*
20,1,$1+$1,$2,$3,$4,$5,0*
20,1,$1+$1,$4,$5,$6,$7,0*
20,1,$1+$1,$6,$7,$8,$9,0*
20,1,$1+$1,$8,$9,$2,$3,0*%
G04 Aperture macros list end*
%ADD10C,0.100000*%
%ADD11C,0.120000*%
%ADD12C,1.600000*%
%ADD13O,1.600000X1.600000*%
%ADD14RoundRect,0.250000X-0.600000X-0.750000X0.600000X-0.750000X0.600000X0.750000X-0.600000X0.750000X0*%
%ADD15O,1.700000X2.000000*%
%ADD16RoundRect,0.250000X-0.600000X-0.725000X0.600000X-0.725000X0.600000X0.725000X-0.600000X0.725000X0*%
%ADD17O,1.700000X1.950000*%
%ADD18R,1.700000X1.700000*%
%ADD19O,1.700000X1.700000*%
G04 APERTURE END LIST*
D10*
X106852544Y-108545133D02*
X106852544Y-107845133D01*
X106852544Y-107845133D02*
X106685877Y-107845133D01*
X106685877Y-107845133D02*
X106585877Y-107878466D01*
X106585877Y-107878466D02*
X106519211Y-107945133D01*
X106519211Y-107945133D02*
X106485877Y-108011800D01*
X106485877Y-108011800D02*
X106452544Y-108145133D01*
X106452544Y-108145133D02*
X106452544Y-108245133D01*
X106452544Y-108245133D02*
X106485877Y-108378466D01*
X106485877Y-108378466D02*
X106519211Y-108445133D01*
X106519211Y-108445133D02*
X106585877Y-108511800D01*
X106585877Y-108511800D02*
X106685877Y-108545133D01*
X106685877Y-108545133D02*
X106852544Y-108545133D01*
X105685877Y-108611800D02*
X105752544Y-108578466D01*
X105752544Y-108578466D02*
X105819211Y-108511800D01*
X105819211Y-108511800D02*
X105919211Y-108411800D01*
X105919211Y-108411800D02*
X105985877Y-108378466D01*
X105985877Y-108378466D02*
X106052544Y-108378466D01*
X106019211Y-108545133D02*
X106085877Y-108511800D01*
X106085877Y-108511800D02*
X106152544Y-108445133D01*
X106152544Y-108445133D02*
X106185877Y-108311800D01*
X106185877Y-108311800D02*
X106185877Y-108078466D01*
X106185877Y-108078466D02*
X106152544Y-107945133D01*
X106152544Y-107945133D02*
X106085877Y-107878466D01*
X106085877Y-107878466D02*
X106019211Y-107845133D01*
X106019211Y-107845133D02*
X105885877Y-107845133D01*
X105885877Y-107845133D02*
X105819211Y-107878466D01*
X105819211Y-107878466D02*
X105752544Y-107945133D01*
X105752544Y-107945133D02*
X105719211Y-108078466D01*
X105719211Y-108078466D02*
X105719211Y-108311800D01*
X105719211Y-108311800D02*
X105752544Y-108445133D01*
X105752544Y-108445133D02*
X105819211Y-108511800D01*
X105819211Y-108511800D02*
X105885877Y-108545133D01*
X105885877Y-108545133D02*
X106019211Y-108545133D01*
X128236211Y-119275133D02*
X128569544Y-119275133D01*
X128569544Y-119275133D02*
X128602877Y-119608466D01*
X128602877Y-119608466D02*
X128569544Y-119575133D01*
X128569544Y-119575133D02*
X128502877Y-119541800D01*
X128502877Y-119541800D02*
X128336211Y-119541800D01*
X128336211Y-119541800D02*
X128269544Y-119575133D01*
X128269544Y-119575133D02*
X128236211Y-119608466D01*
X128236211Y-119608466D02*
X128202877Y-119675133D01*
X128202877Y-119675133D02*
X128202877Y-119841800D01*
X128202877Y-119841800D02*
X128236211Y-119908466D01*
X128236211Y-119908466D02*
X128269544Y-119941800D01*
X128269544Y-119941800D02*
X128336211Y-119975133D01*
X128336211Y-119975133D02*
X128502877Y-119975133D01*
X128502877Y-119975133D02*
X128569544Y-119941800D01*
X128569544Y-119941800D02*
X128602877Y-119908466D01*
X128002877Y-119275133D02*
X127769544Y-119975133D01*
X127769544Y-119975133D02*
X127536210Y-119275133D01*
X109406877Y-107878466D02*
X109473544Y-107845133D01*
X109473544Y-107845133D02*
X109573544Y-107845133D01*
X109573544Y-107845133D02*
X109673544Y-107878466D01*
X109673544Y-107878466D02*
X109740211Y-107945133D01*
X109740211Y-107945133D02*
X109773544Y-108011800D01*
X109773544Y-108011800D02*
X109806877Y-108145133D01*
X109806877Y-108145133D02*
X109806877Y-108245133D01*
X109806877Y-108245133D02*
X109773544Y-108378466D01*
X109773544Y-108378466D02*
X109740211Y-108445133D01*
X109740211Y-108445133D02*
X109673544Y-108511800D01*
X109673544Y-108511800D02*
X109573544Y-108545133D01*
X109573544Y-108545133D02*
X109506877Y-108545133D01*
X109506877Y-108545133D02*
X109406877Y-108511800D01*
X109406877Y-108511800D02*
X109373544Y-108478466D01*
X109373544Y-108478466D02*
X109373544Y-108245133D01*
X109373544Y-108245133D02*
X109506877Y-108245133D01*
X109073544Y-108545133D02*
X109073544Y-107845133D01*
X109073544Y-107845133D02*
X108673544Y-108545133D01*
X108673544Y-108545133D02*
X108673544Y-107845133D01*
X108340211Y-108545133D02*
X108340211Y-107845133D01*
X108340211Y-107845133D02*
X108173544Y-107845133D01*
X108173544Y-107845133D02*
X108073544Y-107878466D01*
X108073544Y-107878466D02*
X108006878Y-107945133D01*
X108006878Y-107945133D02*
X107973544Y-108011800D01*
X107973544Y-108011800D02*
X107940211Y-108145133D01*
X107940211Y-108145133D02*
X107940211Y-108245133D01*
X107940211Y-108245133D02*
X107973544Y-108378466D01*
X107973544Y-108378466D02*
X108006878Y-108445133D01*
X108006878Y-108445133D02*
X108073544Y-108511800D01*
X108073544Y-108511800D02*
X108173544Y-108545133D01*
X108173544Y-108545133D02*
X108340211Y-108545133D01*
X112253211Y-107845133D02*
X111819877Y-107845133D01*
X111819877Y-107845133D02*
X112053211Y-108111800D01*
X112053211Y-108111800D02*
X111953211Y-108111800D01*
X111953211Y-108111800D02*
X111886544Y-108145133D01*
X111886544Y-108145133D02*
X111853211Y-108178466D01*
X111853211Y-108178466D02*
X111819877Y-108245133D01*
X111819877Y-108245133D02*
X111819877Y-108411800D01*
X111819877Y-108411800D02*
X111853211Y-108478466D01*
X111853211Y-108478466D02*
X111886544Y-108511800D01*
X111886544Y-108511800D02*
X111953211Y-108545133D01*
X111953211Y-108545133D02*
X112153211Y-108545133D01*
X112153211Y-108545133D02*
X112219877Y-108511800D01*
X112219877Y-108511800D02*
X112253211Y-108478466D01*
X111619877Y-107845133D02*
X111386544Y-108545133D01*
X111386544Y-108545133D02*
X111153210Y-107845133D01*
X110986544Y-107845133D02*
X110553210Y-107845133D01*
X110553210Y-107845133D02*
X110786544Y-108111800D01*
X110786544Y-108111800D02*
X110686544Y-108111800D01*
X110686544Y-108111800D02*
X110619877Y-108145133D01*
X110619877Y-108145133D02*
X110586544Y-108178466D01*
X110586544Y-108178466D02*
X110553210Y-108245133D01*
X110553210Y-108245133D02*
X110553210Y-108411800D01*
X110553210Y-108411800D02*
X110586544Y-108478466D01*
X110586544Y-108478466D02*
X110619877Y-108511800D01*
X110619877Y-108511800D02*
X110686544Y-108545133D01*
X110686544Y-108545133D02*
X110886544Y-108545133D01*
X110886544Y-108545133D02*
X110953210Y-108511800D01*
X110953210Y-108511800D02*
X110986544Y-108478466D01*
X122233877Y-107878466D02*
X122300544Y-107845133D01*
X122300544Y-107845133D02*
X122400544Y-107845133D01*
X122400544Y-107845133D02*
X122500544Y-107878466D01*
X122500544Y-107878466D02*
X122567211Y-107945133D01*
X122567211Y-107945133D02*
X122600544Y-108011800D01*
X122600544Y-108011800D02*
X122633877Y-108145133D01*
X122633877Y-108145133D02*
X122633877Y-108245133D01*
X122633877Y-108245133D02*
X122600544Y-108378466D01*
X122600544Y-108378466D02*
X122567211Y-108445133D01*
X122567211Y-108445133D02*
X122500544Y-108511800D01*
X122500544Y-108511800D02*
X122400544Y-108545133D01*
X122400544Y-108545133D02*
X122333877Y-108545133D01*
X122333877Y-108545133D02*
X122233877Y-108511800D01*
X122233877Y-108511800D02*
X122200544Y-108478466D01*
X122200544Y-108478466D02*
X122200544Y-108245133D01*
X122200544Y-108245133D02*
X122333877Y-108245133D01*
X121900544Y-108545133D02*
X121900544Y-107845133D01*
X121900544Y-107845133D02*
X121500544Y-108545133D01*
X121500544Y-108545133D02*
X121500544Y-107845133D01*
X121167211Y-108545133D02*
X121167211Y-107845133D01*
X121167211Y-107845133D02*
X121000544Y-107845133D01*
X121000544Y-107845133D02*
X120900544Y-107878466D01*
X120900544Y-107878466D02*
X120833878Y-107945133D01*
X120833878Y-107945133D02*
X120800544Y-108011800D01*
X120800544Y-108011800D02*
X120767211Y-108145133D01*
X120767211Y-108145133D02*
X120767211Y-108245133D01*
X120767211Y-108245133D02*
X120800544Y-108378466D01*
X120800544Y-108378466D02*
X120833878Y-108445133D01*
X120833878Y-108445133D02*
X120900544Y-108511800D01*
X120900544Y-108511800D02*
X121000544Y-108545133D01*
X121000544Y-108545133D02*
X121167211Y-108545133D01*
X109406877Y-119308466D02*
X109473544Y-119275133D01*
X109473544Y-119275133D02*
X109573544Y-119275133D01*
X109573544Y-119275133D02*
X109673544Y-119308466D01*
X109673544Y-119308466D02*
X109740211Y-119375133D01*
X109740211Y-119375133D02*
X109773544Y-119441800D01*
X109773544Y-119441800D02*
X109806877Y-119575133D01*
X109806877Y-119575133D02*
X109806877Y-119675133D01*
X109806877Y-119675133D02*
X109773544Y-119808466D01*
X109773544Y-119808466D02*
X109740211Y-119875133D01*
X109740211Y-119875133D02*
X109673544Y-119941800D01*
X109673544Y-119941800D02*
X109573544Y-119975133D01*
X109573544Y-119975133D02*
X109506877Y-119975133D01*
X109506877Y-119975133D02*
X109406877Y-119941800D01*
X109406877Y-119941800D02*
X109373544Y-119908466D01*
X109373544Y-119908466D02*
X109373544Y-119675133D01*
X109373544Y-119675133D02*
X109506877Y-119675133D01*
X109073544Y-119975133D02*
X109073544Y-119275133D01*
X109073544Y-119275133D02*
X108673544Y-119975133D01*
X108673544Y-119975133D02*
X108673544Y-119275133D01*
X108340211Y-119975133D02*
X108340211Y-119275133D01*
X108340211Y-119275133D02*
X108173544Y-119275133D01*
X108173544Y-119275133D02*
X108073544Y-119308466D01*
X108073544Y-119308466D02*
X108006878Y-119375133D01*
X108006878Y-119375133D02*
X107973544Y-119441800D01*
X107973544Y-119441800D02*
X107940211Y-119575133D01*
X107940211Y-119575133D02*
X107940211Y-119675133D01*
X107940211Y-119675133D02*
X107973544Y-119808466D01*
X107973544Y-119808466D02*
X108006878Y-119875133D01*
X108006878Y-119875133D02*
X108073544Y-119941800D01*
X108073544Y-119941800D02*
X108173544Y-119975133D01*
X108173544Y-119975133D02*
X108340211Y-119975133D01*
X125080211Y-107845133D02*
X124646877Y-107845133D01*
X124646877Y-107845133D02*
X124880211Y-108111800D01*
X124880211Y-108111800D02*
X124780211Y-108111800D01*
X124780211Y-108111800D02*
X124713544Y-108145133D01*
X124713544Y-108145133D02*
X124680211Y-108178466D01*
X124680211Y-108178466D02*
X124646877Y-108245133D01*
X124646877Y-108245133D02*
X124646877Y-108411800D01*
X124646877Y-108411800D02*
X124680211Y-108478466D01*
X124680211Y-108478466D02*
X124713544Y-108511800D01*
X124713544Y-108511800D02*
X124780211Y-108545133D01*
X124780211Y-108545133D02*
X124980211Y-108545133D01*
X124980211Y-108545133D02*
X125046877Y-108511800D01*
X125046877Y-108511800D02*
X125080211Y-108478466D01*
X124446877Y-107845133D02*
X124213544Y-108545133D01*
X124213544Y-108545133D02*
X123980210Y-107845133D01*
X123813544Y-107845133D02*
X123380210Y-107845133D01*
X123380210Y-107845133D02*
X123613544Y-108111800D01*
X123613544Y-108111800D02*
X123513544Y-108111800D01*
X123513544Y-108111800D02*
X123446877Y-108145133D01*
X123446877Y-108145133D02*
X123413544Y-108178466D01*
X123413544Y-108178466D02*
X123380210Y-108245133D01*
X123380210Y-108245133D02*
X123380210Y-108411800D01*
X123380210Y-108411800D02*
X123413544Y-108478466D01*
X123413544Y-108478466D02*
X123446877Y-108511800D01*
X123446877Y-108511800D02*
X123513544Y-108545133D01*
X123513544Y-108545133D02*
X123713544Y-108545133D01*
X123713544Y-108545133D02*
X123780210Y-108511800D01*
X123780210Y-108511800D02*
X123813544Y-108478466D01*
X119679544Y-108545133D02*
X119679544Y-107845133D01*
X119679544Y-107845133D02*
X119512877Y-107845133D01*
X119512877Y-107845133D02*
X119412877Y-107878466D01*
X119412877Y-107878466D02*
X119346211Y-107945133D01*
X119346211Y-107945133D02*
X119312877Y-108011800D01*
X119312877Y-108011800D02*
X119279544Y-108145133D01*
X119279544Y-108145133D02*
X119279544Y-108245133D01*
X119279544Y-108245133D02*
X119312877Y-108378466D01*
X119312877Y-108378466D02*
X119346211Y-108445133D01*
X119346211Y-108445133D02*
X119412877Y-108511800D01*
X119412877Y-108511800D02*
X119512877Y-108545133D01*
X119512877Y-108545133D02*
X119679544Y-108545133D01*
X118512877Y-108611800D02*
X118579544Y-108578466D01*
X118579544Y-108578466D02*
X118646211Y-108511800D01*
X118646211Y-108511800D02*
X118746211Y-108411800D01*
X118746211Y-108411800D02*
X118812877Y-108378466D01*
X118812877Y-108378466D02*
X118879544Y-108378466D01*
X118846211Y-108545133D02*
X118912877Y-108511800D01*
X118912877Y-108511800D02*
X118979544Y-108445133D01*
X118979544Y-108445133D02*
X119012877Y-108311800D01*
X119012877Y-108311800D02*
X119012877Y-108078466D01*
X119012877Y-108078466D02*
X118979544Y-107945133D01*
X118979544Y-107945133D02*
X118912877Y-107878466D01*
X118912877Y-107878466D02*
X118846211Y-107845133D01*
X118846211Y-107845133D02*
X118712877Y-107845133D01*
X118712877Y-107845133D02*
X118646211Y-107878466D01*
X118646211Y-107878466D02*
X118579544Y-107945133D01*
X118579544Y-107945133D02*
X118546211Y-108078466D01*
X118546211Y-108078466D02*
X118546211Y-108311800D01*
X118546211Y-108311800D02*
X118579544Y-108445133D01*
X118579544Y-108445133D02*
X118646211Y-108511800D01*
X118646211Y-108511800D02*
X118712877Y-108545133D01*
X118712877Y-108545133D02*
X118846211Y-108545133D01*
X112253211Y-119275133D02*
X111819877Y-119275133D01*
X111819877Y-119275133D02*
X112053211Y-119541800D01*
X112053211Y-119541800D02*
X111953211Y-119541800D01*
X111953211Y-119541800D02*
X111886544Y-119575133D01*
X111886544Y-119575133D02*
X111853211Y-119608466D01*
X111853211Y-119608466D02*
X111819877Y-119675133D01*
X111819877Y-119675133D02*
X111819877Y-119841800D01*
X111819877Y-119841800D02*
X111853211Y-119908466D01*
X111853211Y-119908466D02*
X111886544Y-119941800D01*
X111886544Y-119941800D02*
X111953211Y-119975133D01*
X111953211Y-119975133D02*
X112153211Y-119975133D01*
X112153211Y-119975133D02*
X112219877Y-119941800D01*
X112219877Y-119941800D02*
X112253211Y-119908466D01*
X111619877Y-119275133D02*
X111386544Y-119975133D01*
X111386544Y-119975133D02*
X111153210Y-119275133D01*
X110986544Y-119275133D02*
X110553210Y-119275133D01*
X110553210Y-119275133D02*
X110786544Y-119541800D01*
X110786544Y-119541800D02*
X110686544Y-119541800D01*
X110686544Y-119541800D02*
X110619877Y-119575133D01*
X110619877Y-119575133D02*
X110586544Y-119608466D01*
X110586544Y-119608466D02*
X110553210Y-119675133D01*
X110553210Y-119675133D02*
X110553210Y-119841800D01*
X110553210Y-119841800D02*
X110586544Y-119908466D01*
X110586544Y-119908466D02*
X110619877Y-119941800D01*
X110619877Y-119941800D02*
X110686544Y-119975133D01*
X110686544Y-119975133D02*
X110886544Y-119975133D01*
X110886544Y-119975133D02*
X110953210Y-119941800D01*
X110953210Y-119941800D02*
X110986544Y-119908466D01*
X106852544Y-119975133D02*
X106852544Y-119275133D01*
X106852544Y-119275133D02*
X106685877Y-119275133D01*
X106685877Y-119275133D02*
X106585877Y-119308466D01*
X106585877Y-119308466D02*
X106519211Y-119375133D01*
X106519211Y-119375133D02*
X106485877Y-119441800D01*
X106485877Y-119441800D02*
X106452544Y-119575133D01*
X106452544Y-119575133D02*
X106452544Y-119675133D01*
X106452544Y-119675133D02*
X106485877Y-119808466D01*
X106485877Y-119808466D02*
X106519211Y-119875133D01*
X106519211Y-119875133D02*
X106585877Y-119941800D01*
X106585877Y-119941800D02*
X106685877Y-119975133D01*
X106685877Y-119975133D02*
X106852544Y-119975133D01*
X105685877Y-120041800D02*
X105752544Y-120008466D01*
X105752544Y-120008466D02*
X105819211Y-119941800D01*
X105819211Y-119941800D02*
X105919211Y-119841800D01*
X105919211Y-119841800D02*
X105985877Y-119808466D01*
X105985877Y-119808466D02*
X106052544Y-119808466D01*
X106019211Y-119975133D02*
X106085877Y-119941800D01*
X106085877Y-119941800D02*
X106152544Y-119875133D01*
X106152544Y-119875133D02*
X106185877Y-119741800D01*
X106185877Y-119741800D02*
X106185877Y-119508466D01*
X106185877Y-119508466D02*
X106152544Y-119375133D01*
X106152544Y-119375133D02*
X106085877Y-119308466D01*
X106085877Y-119308466D02*
X106019211Y-119275133D01*
X106019211Y-119275133D02*
X105885877Y-119275133D01*
X105885877Y-119275133D02*
X105819211Y-119308466D01*
X105819211Y-119308466D02*
X105752544Y-119375133D01*
X105752544Y-119375133D02*
X105719211Y-119508466D01*
X105719211Y-119508466D02*
X105719211Y-119741800D01*
X105719211Y-119741800D02*
X105752544Y-119875133D01*
X105752544Y-119875133D02*
X105819211Y-119941800D01*
X105819211Y-119941800D02*
X105885877Y-119975133D01*
X105885877Y-119975133D02*
X106019211Y-119975133D01*
X126170877Y-119308466D02*
X126237544Y-119275133D01*
X126237544Y-119275133D02*
X126337544Y-119275133D01*
X126337544Y-119275133D02*
X126437544Y-119308466D01*
X126437544Y-119308466D02*
X126504211Y-119375133D01*
X126504211Y-119375133D02*
X126537544Y-119441800D01*
X126537544Y-119441800D02*
X126570877Y-119575133D01*
X126570877Y-119575133D02*
X126570877Y-119675133D01*
X126570877Y-119675133D02*
X126537544Y-119808466D01*
X126537544Y-119808466D02*
X126504211Y-119875133D01*
X126504211Y-119875133D02*
X126437544Y-119941800D01*
X126437544Y-119941800D02*
X126337544Y-119975133D01*
X126337544Y-119975133D02*
X126270877Y-119975133D01*
X126270877Y-119975133D02*
X126170877Y-119941800D01*
X126170877Y-119941800D02*
X126137544Y-119908466D01*
X126137544Y-119908466D02*
X126137544Y-119675133D01*
X126137544Y-119675133D02*
X126270877Y-119675133D01*
X125837544Y-119975133D02*
X125837544Y-119275133D01*
X125837544Y-119275133D02*
X125437544Y-119975133D01*
X125437544Y-119975133D02*
X125437544Y-119275133D01*
X125104211Y-119975133D02*
X125104211Y-119275133D01*
X125104211Y-119275133D02*
X124937544Y-119275133D01*
X124937544Y-119275133D02*
X124837544Y-119308466D01*
X124837544Y-119308466D02*
X124770878Y-119375133D01*
X124770878Y-119375133D02*
X124737544Y-119441800D01*
X124737544Y-119441800D02*
X124704211Y-119575133D01*
X124704211Y-119575133D02*
X124704211Y-119675133D01*
X124704211Y-119675133D02*
X124737544Y-119808466D01*
X124737544Y-119808466D02*
X124770878Y-119875133D01*
X124770878Y-119875133D02*
X124837544Y-119941800D01*
X124837544Y-119941800D02*
X124937544Y-119975133D01*
X124937544Y-119975133D02*
X125104211Y-119975133D01*
D11*
X100040000Y-125460000D02*
X100040000Y-122800000D01*
X130580000Y-122800000D02*
X100040000Y-122800000D01*
X130580000Y-125460000D02*
X100040000Y-125460000D01*
X130580000Y-125460000D02*
X130580000Y-122800000D01*
X133180000Y-122800000D02*
X131850000Y-122800000D01*
X133180000Y-124130000D02*
X133180000Y-122800000D01*
X100040000Y-102600000D02*
X100040000Y-99940000D01*
X130580000Y-99940000D02*
X100040000Y-99940000D01*
X130580000Y-102600000D02*
X100040000Y-102600000D01*
X130580000Y-102600000D02*
X130580000Y-99940000D01*
X133180000Y-99940000D02*
X131850000Y-99940000D01*
X133180000Y-101270000D02*
X133180000Y-99940000D01*
%LPC*%
D12*
X103910000Y-112700000D03*
D13*
X114070000Y-112700000D03*
D14*
X125540000Y-117780000D03*
D15*
X128040000Y-117780000D03*
D16*
X119150000Y-106350000D03*
D17*
X121650000Y-106350000D03*
X124150000Y-106350000D03*
D16*
X106450000Y-106350000D03*
D17*
X108950000Y-106350000D03*
X111450000Y-106350000D03*
D18*
X133120000Y-119050000D03*
D19*
X133120000Y-116510000D03*
X133120000Y-113970000D03*
X133120000Y-111430000D03*
X133120000Y-108890000D03*
X133120000Y-106350000D03*
D16*
X106450000Y-117780000D03*
D17*
X108950000Y-117780000D03*
X111450000Y-117780000D03*
D18*
X128045000Y-112700000D03*
D19*
X125505000Y-112700000D03*
D18*
X120420000Y-120320000D03*
D19*
X120420000Y-117780000D03*
X120420000Y-115240000D03*
D18*
X131850000Y-124130000D03*
D19*
X129310000Y-124130000D03*
X126770000Y-124130000D03*
X124230000Y-124130000D03*
X121690000Y-124130000D03*
X119150000Y-124130000D03*
X116610000Y-124130000D03*
X114070000Y-124130000D03*
X111530000Y-124130000D03*
X108990000Y-124130000D03*
X106450000Y-124130000D03*
X103910000Y-124130000D03*
X101370000Y-124130000D03*
D18*
X131850000Y-101270000D03*
D19*
X129310000Y-101270000D03*
X126770000Y-101270000D03*
X124230000Y-101270000D03*
X121690000Y-101270000D03*
X119150000Y-101270000D03*
X116610000Y-101270000D03*
X114070000Y-101270000D03*
X111530000Y-101270000D03*
X108990000Y-101270000D03*
X106450000Y-101270000D03*
X103910000Y-101270000D03*
X101370000Y-101270000D03*
%LPD*%
M02*
