M48
; DRILL file {KiCad 9.0.0} date 2025-04-11T23:40:53+0200
; FORMAT={-:-/ absolute / metric / decimal}
; #@! TF.CreationDate,2025-04-11T23:40:53+02:00
; #@! TF.GenerationSoftware,Kicad,Pcbnew,9.0.0
; #@! TF.FileFunction,Plated,1,2,PTH
FMAT,2
METRIC
; #@! TA.AperFunction,Plated,PTH,ComponentDrill
T1C0.800
; #@! TA.AperFunction,Plated,PTH,ComponentDrill
T2C0.950
; #@! TA.AperFunction,Plated,PTH,ComponentDrill
T3C1.000
%
G90
G05
T1
X103.91Y-112.7
X114.07Y-112.7
T2
X106.45Y-106.35
X106.45Y-117.78
X108.95Y-106.35
X108.95Y-117.78
X111.45Y-106.35
X111.45Y-117.78
X119.15Y-106.35
X121.65Y-106.35
X124.15Y-106.35
T3
X101.37Y-101.27
X101.37Y-124.13
X103.91Y-101.27
X103.91Y-124.13
X106.45Y-101.27
X106.45Y-124.13
X108.99Y-101.27
X108.99Y-124.13
X111.53Y-101.27
X111.53Y-124.13
X114.07Y-101.27
X114.07Y-124.13
X116.61Y-101.27
X116.61Y-124.13
X119.15Y-101.27
X119.15Y-124.13
X120.42Y-115.24
X120.42Y-117.78
X120.42Y-120.32
X121.69Y-101.27
X121.69Y-124.13
X124.23Y-101.27
X124.23Y-124.13
X125.505Y-112.7
X125.54Y-117.78
X126.77Y-101.27
X126.77Y-124.13
X128.04Y-117.78
X128.045Y-112.7
X129.31Y-101.27
X129.31Y-124.13
X131.85Y-101.27
X131.85Y-124.13
X133.12Y-106.35
X133.12Y-108.89
X133.12Y-111.43
X133.12Y-113.97
X133.12Y-116.51
X133.12Y-119.05
M30
